<?xml version="1.0" encoding="utf-8"?>
<!-- Generator: Adobe Illustrator 27.5.0, SVG Export Plug-In . SVG Version: 6.00 Build 0)  -->
<svg version="1.1" xmlns="http://www.w3.org/2000/svg" xmlns:xlink="http://www.w3.org/1999/xlink" x="0px" y="0px"
	 viewBox="0 0 500 500" style="enable-background:new 0 0 500 500;" xml:space="preserve">
<g id="Background_Simple">
	<g>
		<path style="fill:#92E3A9;" d="M480.547,186.687c-1.746-21.697-1.94-40.912-10.759-61.464
			c-7.081-16.502-14.952-33.199-25.751-47.648c-32.972-44.115-84.59-63.779-138.334-65.782
			C217.584,8.509,131.795,64.816,102.336,148.37c-4.757,13.494-12.585,24.865-21.44,35.58c-0.921-0.558-1.448-2.057-1.449-4.647
			c-0.002-23.064-26.065,2.726-30.149,9.009C-3.547,269.592,7.825,403.24,95.896,455.206
			c36.167,21.341,76.248,31.591,117.843,34.922c37.832,3.03,78.813-2.68,107.355-29.876c24.714-23.549,33.147-58.519,53.806-84.399
			c-1.655,3.288-5.827,12.69-5.764,23.797c0.079,13.847,35.01,8.29,70.734-52.839C473.385,289.463,484.54,236.307,480.547,186.687z"
			/>
		<path style="opacity:0.7;fill:#FFFFFF;" d="M480.547,186.687c-1.746-21.697-1.94-40.912-10.759-61.464
			c-7.081-16.502-14.952-33.199-25.751-47.648c-32.972-44.115-84.59-63.779-138.334-65.782
			C217.584,8.509,131.795,64.816,102.336,148.37c-4.757,13.494-12.585,24.865-21.44,35.58c-0.921-0.558-1.448-2.057-1.449-4.647
			c-0.002-23.064-26.065,2.726-30.149,9.009C-3.547,269.592,7.825,403.24,95.896,455.206
			c36.167,21.341,76.248,31.591,117.843,34.922c37.832,3.03,78.813-2.68,107.355-29.876c24.714-23.549,33.147-58.519,53.806-84.399
			c-1.655,3.288-5.827,12.69-5.764,23.797c0.079,13.847,35.01,8.29,70.734-52.839C473.385,289.463,484.54,236.307,480.547,186.687z"
			/>
	</g>
</g>
<g id="Floor">
	
		<line style="fill:none;stroke:#263238;stroke-linecap:round;stroke-linejoin:round;stroke-miterlimit:10;" x1="19.767" y1="420.018" x2="487.163" y2="420.018"/>
</g>
<g id="Speech_Bubbles">
	<path style="fill:#FFFFFF;stroke:#263238;stroke-linecap:round;stroke-linejoin:round;stroke-miterlimit:10;" d="M311.2,44.809
		h-49.397c-4.877,0-8.831,3.954-8.831,8.831v55.821c0,4.877,3.954,8.831,8.831,8.831h28.167l-6.609,12.805l18.407-12.805h9.432
		c4.877,0,8.831-3.954,8.831-8.831V53.64C320.031,48.763,316.077,44.809,311.2,44.809z"/>
	<path style="fill:#263238;stroke:#263238;stroke-linecap:round;stroke-linejoin:round;stroke-miterlimit:10;" d="M469.163,64.395
		h-36.546c-3.608,0-6.533,2.925-6.533,6.534v41.298c0,3.608,2.925,6.534,6.533,6.534h4.388l-4.89,9.474l13.618-9.474h23.428
		c3.608,0,6.534-2.925,6.534-6.534V70.928C475.696,67.32,472.771,64.395,469.163,64.395z"/>
	<g>
		<path style="fill:#FFFFFF;stroke:#263238;stroke-linecap:round;stroke-linejoin:round;stroke-miterlimit:10;" d="M82.924,117.731
			H48.461c-4.856,0-8.792-3.936-8.792-8.792V66.745c0-4.856,3.936-8.792,8.792-8.792h34.463c4.856,0,8.792,3.936,8.792,8.792v42.193
			C91.716,113.794,87.78,117.731,82.924,117.731z"/>
		<path style="fill:#FFFFFF;stroke:#263238;stroke-linecap:round;stroke-linejoin:round;stroke-miterlimit:10;" d="M90.594,121.877
			h-4.51c-1.458,0-2.641-1.182-2.641-2.641v-8.117c0-1.458,1.182-2.641,2.641-2.641h4.51c1.458,0,2.641,1.182,2.641,2.641v8.117
			C93.235,120.695,92.052,121.877,90.594,121.877z"/>
		<path style="fill:#FFFFFF;stroke:#263238;stroke-linecap:round;stroke-linejoin:round;stroke-miterlimit:10;" d="M98.721,126.064
			h-1.377c-1.458,0-2.641-1.182-2.641-2.641v-3.83c0-1.458,1.182-2.641,2.641-2.641h1.377c1.458,0,2.641,1.182,2.641,2.641v3.83
			C101.362,124.882,100.18,126.064,98.721,126.064z"/>
	</g>
</g>
<g id="Question_Marks_2">
	<g>
		<path style="fill:none;stroke:#263238;stroke-linecap:round;stroke-linejoin:round;stroke-miterlimit:10;" d="M182.956,57.464
			c-1.211,0.938-1.958,2.38-2.243,4.326c-0.182,1.246-0.21,2.376-0.078,3.39c0.129,1.014,0.309,2.094,0.541,3.241l-17.756,1.46
			c-0.351-1.96-0.571-3.842-0.666-5.646c-0.094-1.804,0.002-3.678,0.287-5.627c1.002-6.852,3.868-11.903,8.599-15.149
			c4.731-3.246,10.99-4.3,18.78-3.16c7.865,1.15,13.619,4.101,17.261,8.849c3.64,4.75,4.903,10.94,3.787,18.573
			c-0.684,4.673-2.113,8.998-4.285,12.977c-0.313,0.572-0.64,1.137-0.981,1.695 M204.23,85.326c-1.63,2.217-3.505,4.313-5.625,6.288
			c-3.546,3.3-7.7,6.272-12.462,8.917l-1.675,11.45l-17.291-2.529l2.204-15.071c3.904-2.213,7.503-4.789,10.797-7.729
			c3.294-2.938,6.034-6.176,8.223-9.716c2.189-3.538,3.578-7.332,4.171-11.382c0.421-2.881,0.2-5.042-0.664-6.481
			c-0.863-1.44-2.308-2.307-4.333-2.603 M162.954,134.25l2.649-18.109l18.575,2.717l-2.649,18.109L162.954,134.25z"/>
	</g>
	<g>
		<path style="fill:none;stroke:#263238;stroke-linecap:round;stroke-linejoin:round;stroke-miterlimit:10;" d="M467.202,318.58
			c1.387-3.025,2.275-6.194,2.665-9.508c0.365-3.102,0.062-5.413-0.907-6.93c-0.969-1.518-2.545-2.404-4.724-2.66
			c-2.012-0.237-3.653,0.165-4.924,1.206c-1.271,1.042-2.028,2.611-2.275,4.706c-0.158,1.342-0.153,2.554,0.018,3.637
			c0.169,1.084,0.394,2.236,0.677,3.459l-18.995,2.101c-0.435-2.091-0.729-4.102-0.884-6.034s-0.109-3.944,0.138-6.042
			c0.868-7.378,3.789-12.881,8.764-16.504c4.975-3.623,11.655-4.942,20.042-3.955c6.351,0.747,11.46,2.616,15.325,5.605
			 M486.123,291.733c3.634,4.895,4.992,11.259,4.07,19.093c-0.592,5.031-1.994,9.713-4.204,14.044
			c-2.212,4.33-5.167,8.319-8.868,11.965c-3.703,3.645-8.068,6.958-13.094,9.937l-1.451,12.328l-18.618-2.191l1.909-16.227
			c4.119-2.49,7.901-5.361,11.344-8.613c3.443-3.249,6.284-6.805,8.525-10.666 M440.179,383.628l2.294-19.497l20,2.353
			l-2.294,19.497L440.179,383.628z"/>
	</g>
	<g>
		<path style="fill:none;stroke:#263238;stroke-linecap:round;stroke-linejoin:round;stroke-miterlimit:10;" d="M21.204,274.561
			c2.625-1.27,5.728-2.156,9.31-2.656c7.233-1.01,13.067,0.11,17.501,3.36c4.433,3.252,7.141,8.386,8.122,15.405
			c0.6,4.297,0.454,8.48-0.438,12.548c-0.424,1.931-1.004,3.834-1.739,5.71 M52.239,312.724c-0.403,0.782-0.834,1.559-1.294,2.33
			c-2.278,3.823-5.176,7.514-8.695,11.073l1.471,10.529l-15.901,2.222l-1.936-13.859c2.873-2.957,5.384-6.155,7.532-9.596
			c2.149-3.439,3.732-7.001,4.751-10.686c1.019-3.683,1.268-7.388,0.748-11.112c-0.37-2.649-1.122-4.498-2.254-5.545
			c-1.132-1.047-2.63-1.44-4.491-1.18c-1.719,0.24-2.991,0.929-3.818,2.067c-0.827,1.139-1.114,2.603-0.864,4.393
			c0.16,1.146,0.427,2.149,0.804,3.01c0.375,0.861,0.811,1.767,1.311,2.719l-15.284,5.859c-0.814-1.638-1.493-3.241-2.041-4.808
			c-0.548-1.567-0.945-3.245-1.196-5.036c-0.88-6.301,0.347-11.494,3.683-15.575c1.154-1.412,2.538-2.64,4.15-3.683 M30.482,361.836
			l-2.327-16.652l17.082-2.387l2.326,16.652L30.482,361.836z"/>
	</g>
	<g>
		<path style="fill:none;stroke:#263238;stroke-linecap:round;stroke-linejoin:round;stroke-miterlimit:10;" d="M335.753,136.494
			c0.314,1.012,0.556,2.102,0.727,3.272c0.418,2.864,0.338,5.655-0.24,8.373c-0.579,2.717-1.62,5.357-3.122,7.917
			c-1.503,2.56-3.422,5.035-5.754,7.424l1.026,7.018l-10.599,1.549l-1.35-9.238c1.904-1.985,3.566-4.129,4.985-6.434
			c1.419-2.303,2.46-4.686,3.125-7.149c0.665-2.462,0.815-4.934,0.452-7.417c-0.258-1.766-0.768-2.996-1.527-3.69
			c-0.76-0.694-1.76-0.95-3.001-0.768c-1.145,0.167-1.992,0.633-2.539,1.395c-0.547,0.763-0.732,1.742-0.558,2.934
			c0.112,0.764,0.294,1.432,0.549,2.005c0.254,0.573,0.549,1.175,0.886,1.808l-10.172,3.973c-0.55-1.09-1.01-2.156-1.382-3.199
			c-0.372-1.043-0.644-2.161-0.819-3.355c-0.614-4.2,0.183-7.67,2.392-10.406c2.209-2.737,5.7-4.454,10.475-5.151
			c4.821-0.704,8.718,0.019,11.69,2.169 M319.662,187.353l-1.622-11.1l11.386-1.664l1.622,11.1L319.662,187.353z"/>
	</g>
	<g>
		<path style="fill:none;stroke:#263238;stroke-linecap:round;stroke-linejoin:round;stroke-miterlimit:10;" d="M183.847,355.531
			c0.407-0.516,0.801-1.043,1.181-1.58c1.563-2.208,2.754-4.52,3.575-6.935c0.82-2.414,1.128-4.872,0.925-7.373
			c-0.145-1.779-0.575-3.039-1.289-3.78c-0.714-0.741-1.696-1.06-2.946-0.958c-1.154,0.094-2.028,0.504-2.623,1.23
			c-0.594,0.727-0.842,1.691-0.744,2.893c0.063,0.77,0.202,1.448,0.42,2.035c0.217,0.588,0.472,1.208,0.769,1.861l-10.405,3.316
			c-0.479-1.122-0.87-2.216-1.175-3.281c-0.305-1.065-0.505-2.197-0.603-3.4c-0.344-4.231,0.672-7.642,3.051-10.233
			c2.379-2.59,5.973-4.081,10.783-4.472c4.856-0.395,8.699,0.575,11.528,2.91 M198.186,329.739c1.663,2.198,2.639,5.063,2.926,8.598
			c0.235,2.885-0.023,5.666-0.774,8.341c-0.751,2.675-1.958,5.242-3.621,7.701c-1.664,2.459-3.736,4.806-6.216,7.041l0.576,7.07
			l-10.676,0.869l-0.758-9.306c1.034-0.948,2.007-1.942,2.92-2.981 M181.292,384.753l-0.91-11.181l11.469-0.934l0.91,11.181
			L181.292,384.753z"/>
	</g>
</g>
<g id="Question_Marks_1">
	<g>
		<path style="fill:#263238;" d="M280.585,95.637v-9.26c2.154-1.674,4.092-3.541,5.815-5.599c1.723-2.057,3.086-4.246,4.092-6.568
			c1.005-2.321,1.507-4.725,1.507-7.214c0-1.77-0.324-3.051-0.97-3.84c-0.646-0.79-1.591-1.184-2.835-1.184
			c-1.148,0-2.045,0.335-2.691,1.005c-0.646,0.671-0.969,1.604-0.969,2.8c0,0.766,0.083,1.447,0.251,2.046
			c0.167,0.599,0.37,1.232,0.61,1.902l-10.552,2.44c-0.383-1.148-0.682-2.261-0.897-3.337c-0.215-1.077-0.322-2.213-0.322-3.41
			c0-4.21,1.279-7.5,3.839-9.869c2.56-2.369,6.233-3.553,11.019-3.553c4.832,0,8.553,1.269,11.161,3.804
			c2.607,2.537,3.912,6.15,3.912,10.839c0,2.871-0.479,5.599-1.436,8.183c-0.958,2.584-2.357,5.024-4.199,7.321
			c-1.842,2.297-4.08,4.45-6.712,6.46v7.035H280.585z M280.227,110.926V99.8h11.413v11.126H280.227z"/>
	</g>
	<g>
		<path style="fill:#92E3A9;" d="M446.833,102.005V95.36c1.545-1.202,2.936-2.541,4.173-4.018c1.236-1.476,2.215-3.047,2.936-4.714
			c0.721-1.665,1.082-3.391,1.082-5.177c0-1.27-0.232-2.189-0.696-2.756c-0.464-0.567-1.142-0.85-2.035-0.85
			c-0.824,0-1.468,0.241-1.931,0.721c-0.464,0.481-0.695,1.151-0.695,2.009c0,0.55,0.06,1.039,0.18,1.468
			c0.12,0.43,0.265,0.884,0.438,1.365l-7.573,1.751c-0.275-0.824-0.489-1.622-0.644-2.395c-0.155-0.773-0.231-1.588-0.231-2.447
			c0-3.021,0.918-5.383,2.756-7.083c1.837-1.7,4.473-2.55,7.908-2.55c3.468,0,6.138,0.91,8.01,2.73
			c1.871,1.821,2.807,4.413,2.807,7.779c0,2.06-0.344,4.018-1.031,5.873c-0.688,1.854-1.692,3.606-3.013,5.254
			c-1.322,1.648-2.928,3.194-4.817,4.636v5.049H446.833z M446.576,112.977v-7.985h8.19v7.985H446.576z"/>
	</g>
	<g>
		<path style="fill:#92E3A9;stroke:#263238;stroke-linecap:round;stroke-linejoin:round;stroke-miterlimit:10;" d="M60.967,98.978
			v-6.645c1.546-1.202,2.936-2.541,4.173-4.018c1.236-1.476,2.215-3.047,2.936-4.713c0.722-1.665,1.082-3.391,1.082-5.177
			c0-1.27-0.232-2.189-0.696-2.756c-0.464-0.567-1.142-0.85-2.035-0.85c-0.824,0-1.468,0.24-1.932,0.721
			C64.032,76.02,63.8,76.69,63.8,77.548c0,0.55,0.06,1.039,0.18,1.468c0.12,0.43,0.265,0.884,0.438,1.365l-7.573,1.751
			c-0.275-0.824-0.489-1.622-0.644-2.395c-0.155-0.773-0.231-1.588-0.231-2.447c0-3.021,0.918-5.383,2.756-7.083
			c1.837-1.7,4.473-2.55,7.908-2.55c3.468,0,6.138,0.91,8.01,2.73c1.871,1.821,2.808,4.413,2.808,7.779
			c0,2.061-0.344,4.018-1.031,5.873c-0.688,1.854-1.692,3.606-3.013,5.254c-1.322,1.648-2.928,3.194-4.817,4.636v5.049H60.967z
			 M60.709,109.95v-7.985H68.9v7.985H60.709z"/>
	</g>
</g>
<g id="Character_3">
	<g>
		<path style="fill:#263238;stroke:#263238;stroke-linecap:round;stroke-linejoin:round;stroke-miterlimit:10;" d="M428.725,285.541
			c0,0-2.311,43.082-2.022,65.645c0.289,22.563-2.314,29.216-0.579,32.687c1.736,3.471,2.025,10.992,1.157,14.174
			c-0.868,3.182-1.157,15.042-1.157,15.042s1.157,4.339,0.868,8.099c-0.289,3.76-0.289,3.76-0.289,3.76s3.76,6.942,4.05,10.703
			c0.289,3.76-3.76,8.678-8.099,9.257c-4.339,0.578-8.967-1.736-10.124-4.628c-1.157-2.893-2.603-11.281-3.76-14.753
			c-1.157-3.471-2.893-4.05-3.471-8.099c-0.578-4.05,2.025-9.546,1.736-11.86c-0.289-2.314-4.339-59.878-4.339-59.878l-6.653-45.704
			l-12.728,52.646c0,0-4.628,31.53-4.339,34.712c0.289,3.182-2.603,13.306-3.761,16.777c-1.157,3.471-0.578,6.075-0.578,8.389
			c0,2.314-0.578,6.942-2.025,9.257c-1.446,2.314-2.893,13.596-3.76,15.042c-0.868,1.446-1.736,7.81-10.124,7.521
			c-8.389-0.289-8.099-8.678-7.521-12.149c0.578-3.471,4.05-10.992,4.05-13.595s-0.578-6.653-0.289-9.835
			c0.289-3.182,3.471-13.306,3.471-13.306s-2.314-43.968-0.289-50.911c2.025-6.942,2.025-61.903,2.025-61.903l68.553-0.901V285.541z
			"/>
		<g>
			<path style="fill:#92E3A9;stroke:#263238;stroke-linecap:round;stroke-linejoin:round;stroke-miterlimit:10;" d="M405.691,156.71
				v8.26c0,0,16.203,4.448,22.716,8.896c6.513,4.448,9.372,13.661,8.896,19.698s-0.953,15.727-1.747,21.922
				c-0.794,6.195-2.383,17.633-2.383,17.633l-8.26,0.318c0,0,0.477,23.828,0.635,29.07c0.159,5.242,3.177,16.362,3.177,19.221
				s0,3.813,0,3.813s-26.529,6.99-44.479,6.513c-17.951-0.477-26.529-8.419-26.529-8.419s2.701-21.922,2.859-32.089
				c0.159-10.167-2.542-46.386-2.542-46.386l-4.448,4.766l-16.68-14.932c0,0,5.56-10.326,7.943-13.344
				c2.383-3.018,3.495-6.513,9.531-9.849c6.036-3.336,17.951-5.083,19.539-5.56c1.589-0.477,11.12-2.859,11.12-2.859l0.635-4.13
				L405.691,156.71z"/>
			
				<line style="fill:none;stroke:#263238;stroke-linecap:round;stroke-linejoin:round;stroke-miterlimit:10;" x1="356.638" y1="187.889" x2="356.287" y2="183.556"/>
			
				<line style="fill:none;stroke:#263238;stroke-linecap:round;stroke-linejoin:round;stroke-miterlimit:10;" x1="358.035" y1="205.16" x2="356.889" y2="190.994"/>
			
				<line style="fill:none;stroke:#263238;stroke-linecap:round;stroke-linejoin:round;stroke-miterlimit:10;" x1="352.316" y1="186.415" x2="355.652" y2="199.759"/>
			<path style="fill:none;stroke:#263238;stroke-linecap:round;stroke-linejoin:round;stroke-miterlimit:10;" d="M391.238,223.858
				c0.962,1.955,1.874,3.751,2.698,5.29"/>
			<path style="fill:none;stroke:#263238;stroke-linecap:round;stroke-linejoin:round;stroke-miterlimit:10;" d="M377.098,192.77
				c0,0,6.752,15.689,12.563,27.833"/>
			<path style="fill:none;stroke:#263238;stroke-linecap:round;stroke-linejoin:round;stroke-miterlimit:10;" d="M406.445,235.226
				c1.135,1.484,2.266,2.911,3.377,4.247"/>
			<path style="fill:none;stroke:#263238;stroke-linecap:round;stroke-linejoin:round;stroke-miterlimit:10;" d="M385.993,204.366
				c0,0,9.012,15.355,18.377,28.092"/>
			<path style="fill:none;stroke:#263238;stroke-linecap:round;stroke-linejoin:round;stroke-miterlimit:10;" d="M408.45,279.546
				c-6.921-0.704-19.849-2.338-29.605-5.442"/>
			<path style="fill:none;stroke:#263238;stroke-linecap:round;stroke-linejoin:round;stroke-miterlimit:10;" d="M413.316,279.981
				c0,0-0.914-0.064-2.489-0.206"/>
			<path style="fill:none;stroke:#263238;stroke-linecap:round;stroke-linejoin:round;stroke-miterlimit:10;" d="M378.527,276.486
				c0,0,6.672,2.859,17.474,3.971"/>
			<path style="fill:none;stroke:#263238;stroke-linecap:round;stroke-linejoin:round;stroke-miterlimit:10;" d="M419.826,188.491
				c0,0-3.464,3.656-4.426,6.542"/>
			<path style="fill:none;stroke:#263238;stroke-linecap:round;stroke-linejoin:round;stroke-miterlimit:10;" d="M420.019,185.412
				c0,0-2.886,2.501-3.848,4.233"/>
		</g>
		<path style="fill:#E3E3E3;stroke:#263238;stroke-linecap:round;stroke-linejoin:round;stroke-miterlimit:10;" d="M433.173,233.119
			l-8.26,0.318c0,0,0,0-1.271-3.336c-1.271-3.336-5.878-22.875-5.878-22.875c10.167-7.943,18.586-0.953,18.586-0.953l0.061,0.089
			c-0.245,3.305-0.522,6.524-0.856,9.125C434.762,221.681,433.173,233.119,433.173,233.119z"/>
		<path style="fill:#E3E3E3;stroke:#263238;stroke-linecap:round;stroke-linejoin:round;stroke-miterlimit:10;" d="M385.04,163.382
			l0.635-4.13l20.016-2.542v8.26c0,0,1.661,0.456,4.128,1.22c-1.308,4.155-6.625,19.306-15.247,21.496
			c-8.319,2.113-14.218-15.519-16.157-22.631C381.53,164.259,385.04,163.382,385.04,163.382z"/>
		<g>
			<path style="fill:#E3E3E3;stroke:#263238;stroke-linecap:round;stroke-linejoin:round;stroke-miterlimit:10;" d="
				M415.602,113.451c0,0,5.014,4.613,3.911,8.523s-4.312,16.444-4.312,16.444s-4.613,16.344-5.916,18.651
				c-1.303,2.306-10.428,6.518-13.035,6.518c-2.607,0-9.125-1.705-10.228-2.908c-1.103-1.203-2.908-6.618-3.71-8.824
				c-0.802-2.206,2.507-21.057,2.808-24.366c0.301-3.309,0.501-13.035,2.005-14.439c1.504-1.404,8.022-5.916,15.743-4.111
				C409.112,110.398,414.098,111.145,415.602,113.451z"/>
			<path style="fill:#263238;stroke:#263238;stroke-linecap:round;stroke-linejoin:round;stroke-miterlimit:10;" d="M384.07,134.85
				c0.509-3.391,0.948-6.252,1.049-7.361c0.301-3.309,0.501-13.035,2.005-14.439c1.504-1.404,8.022-5.916,15.743-4.111
				c6.244,1.46,11.23,2.206,12.734,4.512c0,0,5.014,4.613,3.911,8.523c-1.103,3.91-4.312,16.444-4.312,16.444
				s-0.077,0.274-0.213,0.751l-0.188,0.052c0,0-1.003,0.301-1.003-0.702s0.902-3.81,0.602-4.312
				c-0.301-0.501-1.404-0.401-1.203-2.406c0.201-2.006,1.705-5.014,1.404-6.317c-0.301-1.304-5.515-4.211-6.718-3.61
				c-1.203,0.602-6.217,1.805-7.721,1.103c-1.504-0.702-5.515-3.61-7.42-4.412c-1.905-0.802-4.813,0.802-5.214,2.106
				c-0.401,1.304-0.401,4.612-1.304,7.119c-0.902,2.507-2.005,7.32-2.005,7.32S384.16,135.009,384.07,134.85z"/>
			<path style="fill:none;stroke:#263238;stroke-linecap:round;stroke-linejoin:round;stroke-miterlimit:10;" d="M410.488,135.812
				c0,0-4.011-2.406-6.818-1.604"/>
			<path style="fill:none;stroke:#263238;stroke-linecap:round;stroke-linejoin:round;stroke-miterlimit:10;" d="M394.646,131.299
				c0.301,0.201-2.206-3.51-5.816-3.008"/>
			<path style="fill:none;stroke:#263238;stroke-linecap:round;stroke-linejoin:round;stroke-miterlimit:10;" d="M398.957,147.242
				c0,0-1.705,2.407-3.71,1.705s-2.808-2.908-2.808-3.309"/>
			<path style="fill:#E3E3E3;stroke:#263238;stroke-linecap:round;stroke-linejoin:round;stroke-miterlimit:10;" d="
				M415.201,138.419c0,0,2.908-1.203,3.409,1.805c0.501,3.008-6.518,8.523-6.518,8.523L415.201,138.419z"/>
			<path style="fill:#E3E3E3;stroke:#263238;stroke-linecap:round;stroke-linejoin:round;stroke-miterlimit:10;" d="
				M384.618,132.503c0,0-3.008-3.008-3.81,1.203c-0.802,4.211,2.005,9.425,2.005,9.425L384.618,132.503z"/>
			<path style="fill:#263238;" d="M403.243,138.37c-0.411,1.058-0.283,2.095,0.284,2.315c0.568,0.22,1.361-0.459,1.772-1.517
				c0.411-1.058,0.284-2.095-0.284-2.315C404.448,136.633,403.654,137.312,403.243,138.37z"/>
			<path style="fill:#263238;" d="M390.044,135.509c-0.156,1.124,0.206,2.104,0.809,2.188c0.603,0.084,1.219-0.76,1.375-1.884
				c0.156-1.124-0.206-2.104-0.809-2.188C390.816,133.541,390.2,134.385,390.044,135.509z"/>
			
				<line style="fill:none;stroke:#263238;stroke-linecap:round;stroke-linejoin:round;stroke-miterlimit:10;" x1="393.342" y1="151.253" x2="389.131" y2="148.546"/>
		</g>
		<g>
			<path style="fill:#E3E3E3;stroke:#263238;stroke-linecap:round;stroke-linejoin:round;stroke-miterlimit:10;" d="
				M408.483,158.473c0,0-0.401,2.507-0.201,4.713s-0.702,4.412-0.702,6.317c0,1.905-0.1,14.74,0.1,15.642
				c0.201,0.902,13.637,22.26,15.241,24.466c1.604,2.206,9.827,11.832,10.629,16.244c0.802,4.412-2.106,11.832-2.707,14.239
				c-0.602,2.407-3.008,3.008-4.211,2.707c-1.203-0.301-8.423-5.615-11.932-9.827s-4.612-6.919-5.916-13.837
				c-1.304-6.919-10.228-31.686-10.228-31.686s-7.019-6.016-8.022-7.219c-1.003-1.203-4.813-7.42-4.813-7.42
				s-5.916-2.106-6.117-2.507c-0.201-0.401-1.103-1.604-0.802-1.805c0.301-0.201,1.805-0.301,1.805-0.301s-2.006-1.203-1.805-1.905
				c0.201-0.702,2.507-0.802,3.911-0.802s3.309-0.1,3.81,0c0.501,0.1,2.808,0.401,2.808,0.401l-4.011-3.71
				c0,0-3.108-1.003-3.008-1.604c0.1-0.602,1.303-0.902,2.206-0.702c0.902,0.201,6.417,1.905,6.718,2.106
				c0.301,0.201,5.615,3.71,5.615,3.71l-4.612-6.117c0,0-3.61-2.507-4.312-3.309c-0.702-0.802-0.501-1.705-0.1-1.905
				s7.22,3.61,7.821,4.111c0.602,0.501,7.621,6.518,7.621,6.518s1.103-0.802,1.304-2.106c0.201-1.303,0.602-2.507,0.802-2.908
				C405.575,159.576,408.483,158.473,408.483,158.473z"/>
			
				<line style="fill:none;stroke:#263238;stroke-linecap:round;stroke-linejoin:round;stroke-miterlimit:10;" x1="389.331" y1="165.893" x2="395.749" y2="169.503"/>
			<path style="fill:none;stroke:#263238;stroke-linecap:round;stroke-linejoin:round;stroke-miterlimit:10;" d="M381.41,168.6
				c0,0,4.612,0.301,5.415,0.702c0.802,0.401,5.715,3.209,5.715,3.209"/>
			
				<line style="fill:none;stroke:#263238;stroke-linecap:round;stroke-linejoin:round;stroke-miterlimit:10;" x1="403.269" y1="164.991" x2="405.776" y2="167.999"/>
		</g>
		<path style="fill:#E3E3E3;stroke:#263238;stroke-linecap:round;stroke-linejoin:round;stroke-miterlimit:10;" d="M352.316,208.814
			c0,0-13.457,18.043-15.364,18.996c-1.906,0.953-9.214-4.607-10.326-7.307c-1.112-2.701,0.794-7.943,0.794-7.943l9.486-17.566
			L352.316,208.814z"/>
		<g>
			<path style="fill:#E3E3E3;stroke:#263238;stroke-linecap:round;stroke-linejoin:round;stroke-miterlimit:10;" d="
				M340.984,219.621c1.882,14.088,4.932,27.597,10.062,42.091c0,0,14.138-0.635,14.615-0.477c0.477,0.159,8.578,4.289,9.055,5.242
				c0.477,0.953,2.542,4.13,1.906,4.607c-0.635,0.477-4.289-2.542-4.289-2.542s-4.448-2.701-4.924-2.701s4.289,4.448,4.289,4.448
				l3.654,4.924c0,0-1.589,1.906-3.018-0.159c-1.43-2.065-5.878-5.083-5.878-5.083s6.831,6.672,6.195,7.307
				c-0.635,0.635-0.477,1.43-2.224,0.159c-1.747-1.271-5.56-4.607-5.56-4.607l-3.654-0.953c0,0,3.495,3.654,4.448,4.766
				c0.953,1.112,2.065,3.018,1.271,3.177c-0.794,0.159-2.383-0.794-2.859-1.43c-0.477-0.635-3.654-3.495-3.654-3.495l-3.971-2.383
				c0,0-4.924-0.159-6.036-0.635c-1.112-0.477-3.654-3.177-3.971-3.813c-4.124-8.248-9.44-16.143-14.182-24.164
				c-3.544-5.995-12.493-18.298-8.358-25.534c1.271-2.224,6.393-10.987,6.393-10.987"/>
			
				<line style="fill:#FFFFFF;stroke:#263238;stroke-linecap:round;stroke-linejoin:round;stroke-miterlimit:10;" x1="367.407" y1="265.843" x2="365.025" y2="264.572"/>
			
				<line style="fill:#FFFFFF;stroke:#263238;stroke-linecap:round;stroke-linejoin:round;stroke-miterlimit:10;" x1="366.454" y1="269.973" x2="363.277" y2="268.226"/>
		</g>
	</g>
</g>
<g id="Character_2">
	<g>
		<path style="fill:#ADADAD;stroke:#263238;stroke-linecap:round;stroke-linejoin:round;stroke-miterlimit:10;" d="M210.946,214.282
			c0,0-1.688,13.046-1.995,20.414c-0.307,7.367,0.307,14.274,3.223,15.195c2.916,0.921,8.902,1.074,10.898-1.995
			c1.995-3.07,0.921-12.893,1.688-17.651c0.768-4.758,2.149-15.349,2.149-15.349l-15.195-1.995L210.946,214.282z"/>
		<g>
			<path style="fill:#92E3A9;stroke:#263238;stroke-linecap:round;stroke-linejoin:round;stroke-miterlimit:10;" d="
				M286.404,322.675c3.226-14.908,0.227-42.393,0.227-42.393l-1.66-1.546l-30.444,3.274l-33.32-3.274l-1.817,1.546
				c0,0-3.283,27.485,0.248,42.393c3.531,14.908,9.808,35.897,10.004,38.839c0.196,2.942-1.373,15.496-0.589,22.362
				c0.785,6.865,3.531,34.327,3.531,34.327l13.731-0.196c0,0,2.942-41.978,2.942-50.02c0-8.043-0.785-27.658-0.196-29.816
				c0.588-2.158,3.923-35.112,3.923-35.112l0.981,0.089v0.107l0.562-0.056l0.615,0.056v-0.117l0.795-0.079
				c0,0,3.047,32.954,3.585,35.112c0.538,2.158-0.179,21.773-0.179,29.816c0,8.042,2.688,50.02,2.688,50.02l12.546,0.196
				c0,0,2.509-27.462,3.226-34.327c0.717-6.865-0.717-19.42-0.538-22.362C277.442,358.572,283.177,337.583,286.404,322.675z"/>
			
				<line style="fill:none;stroke:#263238;stroke-linecap:round;stroke-linejoin:round;stroke-miterlimit:10;" x1="235.814" y1="289.193" x2="247.04" y2="299.867"/>
			
				<line style="fill:none;stroke:#263238;stroke-linecap:round;stroke-linejoin:round;stroke-miterlimit:10;" x1="244.648" y1="294.53" x2="247.408" y2="298.027"/>
			
				<line style="fill:none;stroke:#263238;stroke-linecap:round;stroke-linejoin:round;stroke-miterlimit:10;" x1="261.211" y1="297.843" x2="266.548" y2="292.506"/>
			<path style="fill:none;stroke:#263238;stroke-linecap:round;stroke-linejoin:round;stroke-miterlimit:10;" d="M269.707,293.505
				c-4.427,3.525-10.336,8.386-10.336,8.386"/>
			<path style="fill:none;stroke:#263238;stroke-linecap:round;stroke-linejoin:round;stroke-miterlimit:10;" d="M274.462,289.929
				c-0.137,0-1.139,0.739-2.567,1.85"/>
		</g>
		<g>
			<path style="fill:#263238;stroke:#263238;stroke-linecap:round;stroke-linejoin:round;stroke-miterlimit:10;" d="
				M232.582,418.203c0,0-2.55,6.866-4.512,11.181c-1.962,4.315-3.727,9.808-1.962,12.358c1.765,2.55,5.1,4.119,9.612,2.746
				c4.512-1.373,7.258-5.296,7.454-9.808c0.196-4.512,2.746-7.062,2.942-8.827c0.196-1.765-0.196-6.081-0.196-6.081L232.582,418.203
				z"/>
			<path style="fill:#FFFFFF;stroke:#263238;stroke-linecap:round;stroke-linejoin:round;stroke-miterlimit:10;" d="M243.175,434.68
				c0.196-4.512,2.746-7.062,2.942-8.827c0.038-0.346,0.054-0.79,0.054-1.28c-1.715,2.212-4.305,5.932-4.566,8.538
				c-0.392,3.923-1.177,7.258-7.062,8.435c-4.97,0.994-8.251-1.782-9.154-2.671c-0.001,1.135,0.207,2.128,0.719,2.868
				c1.766,2.55,5.1,4.119,9.612,2.746C240.233,443.115,242.979,439.192,243.175,434.68z"/>
		</g>
		<g>
			<path style="fill:#263238;stroke:#263238;stroke-linecap:round;stroke-linejoin:round;stroke-miterlimit:10;" d="
				M273.493,418.203c0,0,2.55,6.866,4.512,11.181c1.962,4.315,3.727,9.808,1.962,12.358c-1.765,2.55-5.1,4.119-9.612,2.746
				c-4.512-1.373-7.258-5.296-7.454-9.808c-0.196-4.512-2.746-7.062-2.942-8.827c-0.196-1.765,0.196-6.081,0.196-6.081
				L273.493,418.203z"/>
			<path style="fill:#FFFFFF;stroke:#263238;stroke-linecap:round;stroke-linejoin:round;stroke-miterlimit:10;" d="M262.9,434.68
				c-0.196-4.512-2.746-7.062-2.942-8.827c-0.038-0.346-0.054-0.79-0.054-1.28c1.715,2.212,4.306,5.932,4.566,8.538
				c0.392,3.923,1.177,7.258,7.062,8.435c4.97,0.994,8.251-1.782,9.154-2.671c0.001,1.135-0.207,2.128-0.719,2.868
				c-1.765,2.55-5.1,4.119-9.612,2.746C265.843,443.115,263.097,439.192,262.9,434.68z"/>
		</g>
		<path style="fill:#FFFFFF;stroke:#263238;stroke-linecap:round;stroke-linejoin:round;stroke-miterlimit:10;" d="M230.229,413.103
			l1.177,7.258c0,0,5.1,1.177,8.827,1.373c3.727,0.196,6.277-0.589,6.277-0.589l0.589-8.435L230.229,413.103z"/>
		<path style="fill:#FFFFFF;stroke:#263238;stroke-linecap:round;stroke-linejoin:round;stroke-miterlimit:10;" d="M259.652,412.318
			l0.392,8.435c0,0,6.473,1.373,8.435,1.373c1.962,0,5.689-0.196,5.689-0.196s1.177-5.492,1.177-7.062
			C275.345,413.299,259.652,412.318,259.652,412.318z"/>
		<g>
			<path style="fill:#263238;stroke:#263238;stroke-linecap:round;stroke-linejoin:round;stroke-miterlimit:10;" d="
				M240.512,187.387c0,0-12.682,1.416-16.366,2.951s-7.674,2.609-9.67,7.214c-1.995,4.605-3.53,16.73-3.53,16.73l14.888,2.609
				c0,0-1.995,8.902-1.074,13.353c0.921,4.451,2.609,11.358,2.609,11.358s0.307,9.977-1.228,15.656
				c-1.535,5.679-5.833,18.572-6.139,20.107c-0.307,1.535-0.614,2.916-0.614,2.916s22.256,6.14,41.595,5.372
				c19.34-0.767,26.707-5.526,26.707-5.526s-3.53-16.116-4.758-20.721c-1.228-4.605-1.535-7.06-1.535-7.521s8.749-9.823,8.749-9.823
				s1.842-2.916,1.995-7.981c0.154-5.065,0.614-14.428,0.768-18.726c0.153-4.298-1.228-15.809-5.833-20.414
				c-4.605-4.605-10.13-5.219-12.125-5.679c-1.995-0.46-9.235-3.571-9.235-3.571L240.512,187.387z"/>
			<path style="fill:none;stroke:#949494;stroke-linecap:round;stroke-linejoin:round;stroke-miterlimit:10;" d="M230.746,272.3
				c0,0,11.051,2.456,19.34,3.53"/>
			<path style="fill:none;stroke:#949494;stroke-linecap:round;stroke-linejoin:round;stroke-miterlimit:10;" d="M264.503,273.877
				c-6.246,0.168-14.578,0.158-19.329-0.809"/>
			<path style="fill:none;stroke:#263238;stroke-linecap:round;stroke-linejoin:round;stroke-miterlimit:10;" d="M267.152,273.792
				c-0.823,0.03-1.713,0.06-2.649,0.085"/>
			<path style="fill:none;stroke:#263238;stroke-linecap:round;stroke-linejoin:round;stroke-miterlimit:10;" d="M272.648,273.528
				c0,0-1.655,0.106-4.204,0.213"/>
		</g>
		<path style="fill:#ADADAD;stroke:#263238;stroke-linecap:round;stroke-linejoin:round;stroke-miterlimit:10;" d="M292.909,215.356
			c0.039-1.088-0.022-2.64-0.207-4.424c-7.527,0.884-13.914,4.577-13.914,4.577s-1.074,11.358,2.609,24.558
			c0.937,3.358,2.093,5.938,3.296,7.924c2.481-2.746,5.453-5.928,5.453-5.928s1.842-2.916,1.995-7.981
			C292.295,229.017,292.755,219.654,292.909,215.356z"/>
		<g>
			<path style="fill:#263238;" d="M256.532,134.468c0,0,8.902,3.53,10.591,6.446c1.688,2.916,2.302,29.163,2.149,30.851
				c-0.154,1.688,5.986,2.609,7.674,2.149c1.688-0.46,1.535-1.074,1.842-2.763c0.307-1.688,1.688-2.456,1.688-3.837
				c0-1.381-1.381-2.456-1.381-3.377c0-0.921,1.228-2.609,0.921-3.837c-0.307-1.228-1.535-1.074-1.228-2.456
				c0.307-1.381,1.074-2.763,0.767-3.991c-0.307-1.228-2.456-2.609-2.609-3.53c-0.153-0.921,0.614-2.763,0.307-4.605
				c-0.307-1.842-1.842-1.842-2.609-3.53c-0.767-1.688-0.307-2.149-1.228-4.144c-0.921-1.995-1.842-1.228-2.609-2.456
				c-0.767-1.228-0.307-2.456-1.381-3.377c-1.074-0.921-1.535-2.916-4.144-4.605c-2.609-1.688-4.758-2.302-7.674-3.377
				c-2.916-1.074-6.447-0.921-6.447-0.921s-3.684,1.228-0.307,4.758C254.23,131.398,256.532,134.468,256.532,134.468z"/>
			<path style="fill:#ADADAD;stroke:#263238;stroke-linecap:round;stroke-linejoin:round;stroke-miterlimit:10;" d="M261.056,133.59
				c0,0-6.566,0.424-12.708,4.66c-6.142,4.236-6.142,29.863-5.083,31.77c1.059,1.906,1.483,10.378,0.635,12.708
				c-0.847,2.33-3.389,4.66-3.389,4.66s5.507,12.708,13.343,11.013c7.836-1.694,11.861-12.708,11.861-12.708s-2.33-4.236-2.33-5.083
				s-0.714-1.783-0.714-1.783s5.374,1.783,7.068-3.088c1.694-4.871,3.177-11.861,2.965-15.461c-0.212-3.601-1.271-5.295-1.271-7.625
				c0-2.33,0.212-4.236-0.424-6.566C270.375,143.757,263.598,133.59,261.056,133.59z"/>
			<path style="fill:none;stroke:#263238;stroke-linecap:round;stroke-linejoin:round;stroke-miterlimit:10;" d="M257.914,179.44
				c0,0-2.763-0.154-6.754-3.684"/>
			<path style="fill:none;stroke:#263238;stroke-linecap:round;stroke-linejoin:round;stroke-miterlimit:10;" d="M251.774,149.05
				c0,0,4.451-2.456,7.214-1.228"/>
			<path style="fill:none;stroke:#263238;stroke-linecap:round;stroke-linejoin:round;stroke-miterlimit:10;" d="M265.281,147.361
				c0,0,1.688-3.07,4.451-0.921"/>
			<path style="fill:none;stroke:#263238;stroke-linecap:round;stroke-linejoin:round;stroke-miterlimit:10;" d="M267.43,158.873
				c0,0,1.381,1.535,0.307,2.763c-1.074,1.228-3.07,1.842-4.451,0.46"/>
			
				<line style="fill:none;stroke:#263238;stroke-linecap:round;stroke-linejoin:round;stroke-miterlimit:10;" x1="268.504" y1="165.78" x2="263.439" y2="167.315"/>
			<path style="fill:#263238;" d="M259.13,154.083c0.156,1.219-0.365,2.29-1.164,2.393c-0.799,0.102-1.573-0.803-1.729-2.023
				c-0.156-1.219,0.365-2.29,1.164-2.393C258.2,151.958,258.974,152.864,259.13,154.083z"/>
			<path style="fill:#263238;" d="M269.613,152.326c0.15,1.169-0.338,2.195-1.089,2.291c-0.751,0.096-1.481-0.774-1.631-1.943
				c-0.15-1.169,0.338-2.195,1.089-2.291C268.733,150.287,269.464,151.157,269.613,152.326z"/>
		</g>
		<path style="fill:#263238;" d="M260.37,131.706c0,0-1.535,1.995-2.609,2.609c-1.074,0.614-2.302,0.46-2.456,1.688
			c-0.154,1.228,0,1.995-1.381,2.302c-1.381,0.307-2.609,0-2.916,1.074c-0.307,1.074,0.46,1.535-0.614,2.302
			c-1.074,0.768-2.149,0.46-2.456,1.535c-0.307,1.074,0.46,2.149-0.154,3.53c-0.614,1.381-2.302,1.228-1.842,2.916
			c0.461,1.688,2.149,1.535,0.921,2.763c-1.228,1.228-1.995,1.381-1.381,2.763c0.614,1.381,2.609,3.684,1.381,5.679
			c-1.228,1.995-2.149,1.688-1.688,3.377s1.995,3.223,1.535,4.451c-0.46,1.228-0.921,3.223-0.921,3.223s1.535,2.456-0.153,3.53
			c-1.688,1.074-2.916,1.381-4.758,0.768c-1.842-0.614-2.302-1.995-3.377-1.535c-1.074,0.46-2.149,2.149-4.298,1.535
			c-2.149-0.614-3.377-2.302-4.144-2.149c-0.768,0.154-1.995,0.921-3.684,0.768c-1.688-0.154-1.688-1.842-2.456-2.916
			c-0.767-1.074-1.995-0.154-2.149-2.456c-0.153-2.302,0.154-3.684,0-4.605c-0.153-0.921-1.228,1.074-1.842-2.609
			c-0.614-3.684,1.074-4.298,0.46-5.986c-0.614-1.688-1.995-2.916-1.688-4.605c0.307-1.688,1.228-1.842,1.381-3.377
			c0.153-1.535-0.768-2.456,0-4.144c0.767-1.688,1.995-1.842,2.456-2.916c0.46-1.075-0.768-1.075,0.614-3.223
			c1.381-2.149,3.223-1.381,3.991-2.609c0.767-1.228,0.307-2.609,1.381-3.53c1.074-0.921,1.688,0.307,2.763-1.535
			c1.074-1.842,3.07-3.53,3.684-4.912c0.614-1.381,4.144-0.46,5.065-1.074c0.921-0.614,2.609-1.535,3.53-2.149
			c0.921-0.614,3.223-0.307,3.991,0c0.767,0.307,1.381-0.154,3.07-0.154c1.688,0,11.205,3.991,12.126,5.833
			C262.672,129.71,261.751,130.324,260.37,131.706z"/>
		<path style="fill:#ADADAD;stroke:#263238;stroke-linecap:round;stroke-linejoin:round;stroke-miterlimit:10;" d="M209.105,237.305
			c0,0-0.614,12.432,0.307,14.888c0.921,2.456,3.377,2.149,14.888,3.837c11.512,1.688,32.693-1.381,38.065-1.535
			s11.665-0.614,11.665-0.614s6.907,1.535,7.214,0.614c0.307-0.921-5.065-10.898-6.14-11.665c-1.074-0.767-3.837-0.614-5.372,0.154
			c-1.535,0.768-3.53,1.535-4.912,2.149c-1.381,0.614-21.949,0.768-25.632-0.767c-3.684-1.535-10.591-3.684-14.428-4.451
			c-3.837-0.768-5.986-1.074-5.986-1.074"/>
		<path style="fill:#ADADAD;stroke:#263238;stroke-linecap:round;stroke-linejoin:round;stroke-miterlimit:10;" d="M258.221,181.896
			c0,0,0.097,0.484,0.25,1.187c0.391,1.801,1.151,5.039,1.592,5.26c0.614,0.307,2.149,0.46,2.302-0.154
			c0.153-0.614-0.46-2.763-0.46-2.763c0.921-1.074,0.921-1.074,0.921-1.074s0.614,5.372,0.921,5.986
			c0.307,0.614,2.149,3.684,3.07,4.298c0.921,0.614,2.302,2.302,2.302,2.302l1.842,26.093c0,0,0.307,19.493,1.995,22.716
			c1.688,3.223,8.135,9.67,9.67,9.209c1.535-0.461,6.447-8.442,7.521-12.893c1.074-4.451-1.228-10.437-2.916-13.967
			c-1.688-3.53-9.67-26.4-10.284-28.088c-0.614-1.688-2.763-11.972-4.298-15.502c-1.535-3.53-2.149-6.139-2.302-6.6
			c-0.154-0.46-4.298-0.307-5.986,0.307c-1.688,0.614-6.293,0.154-6.447,1.228S258.221,181.896,258.221,181.896z"/>
		<polyline style="fill:none;stroke:#949494;stroke-linecap:round;stroke-linejoin:round;stroke-miterlimit:10;" points="
			224.453,201.849 226.295,213.054 225.835,216.891 		"/>
		
			<line style="fill:none;stroke:#949494;stroke-linecap:round;stroke-linejoin:round;stroke-miterlimit:10;" x1="226.295" y1="213.054" x2="222.304" y2="205.994"/>
	</g>
</g>
<g id="Character_1">
	<g>
		<g>
			<path style="fill:#C9C9C9;stroke:#263238;stroke-linecap:round;stroke-linejoin:round;stroke-miterlimit:10;" d="M64.557,204.512
				c0,0-5.385,18.714-6.939,26.481c-1.553,7.766,2.524,18.251,3.301,19.999c0.777,1.747,8.737,23.688,9.902,25.824
				c1.165,2.136,4.466,10.291,4.66,10.873c0.194,0.582,6.99-12.038,6.407-13.203c-0.583-1.165-3.495-6.019-4.077-8.932
				c-0.583-2.912-2.718-30.484-2.718-30.484l10.485-27.571L64.557,204.512z"/>
			<path style="fill:none;stroke:#263238;stroke-linecap:round;stroke-linejoin:round;stroke-miterlimit:10;" d="M66.744,228.274
				c0,0,6.019-2.136,8.349,6.796"/>
		</g>
		<g>
			<path style="fill:#263238;stroke:#263238;stroke-linecap:round;stroke-linejoin:round;stroke-miterlimit:10;" d="M85.772,420.689
				c0,0-9.514,10.873-11.65,12.038c-2.136,1.165-3.689,4.077-2.718,6.99c0.971,2.912,7.767,5.631,10.873,5.242
				c3.107-0.388,5.437-0.388,8.155-4.078c2.718-3.689,9.708-8.155,11.844-10.291c2.136-2.136,2.33-5.048,1.748-6.99
				C103.441,421.66,90.043,417.194,85.772,420.689z"/>
			<path style="fill:#FFFFFF;stroke:#263238;stroke-linecap:round;stroke-linejoin:round;stroke-miterlimit:10;" d="M71.404,439.717
				c0.971,2.912,7.767,5.631,10.873,5.242c3.107-0.388,5.437-0.388,8.155-4.077c2.718-3.689,9.708-8.155,11.844-10.291
				c1.101-1.101,1.68-2.408,1.908-3.683c-2.447,1.872-5.877,3.751-7.733,5.236c-2.912,2.33-7.766,6.602-7.766,6.602
				c-6.859-9.298-11.921-7.707-13.782-6.594c-0.308,0.255-0.584,0.467-0.78,0.575C71.986,433.892,70.433,436.805,71.404,439.717z"/>
			<path style="fill:#FFFFFF;stroke:#263238;stroke-linecap:round;stroke-linejoin:round;stroke-miterlimit:10;" d="M88.49,422.048
				c0,0-6.407,4.466-6.407,6.213c0,1.747,3.689,2.136,5.242,1.553c1.553-0.582,7.378-5.631,7.184-6.407
				C94.315,422.631,88.49,422.048,88.49,422.048z"/>
		</g>
		<g>
			<path style="fill:#263238;stroke:#263238;stroke-linecap:round;stroke-linejoin:round;stroke-miterlimit:10;" d="
				M153.713,420.689c0,0,9.514,10.873,11.65,12.038c2.136,1.165,3.689,4.077,2.718,6.99c-0.971,2.912-7.766,5.631-10.873,5.242
				c-3.107-0.388-5.437-0.388-8.155-4.078c-2.718-3.689-9.708-8.155-11.844-10.291s-2.33-5.048-1.747-6.99
				C136.044,421.66,149.441,417.194,153.713,420.689z"/>
			<path style="fill:#FFFFFF;stroke:#263238;stroke-linecap:round;stroke-linejoin:round;stroke-miterlimit:10;" d="
				M168.081,439.717c-0.971,2.912-7.766,5.631-10.873,5.242c-3.107-0.388-5.437-0.388-8.155-4.077
				c-2.718-3.689-9.708-8.155-11.844-10.291c-1.101-1.101-1.68-2.408-1.908-3.683c2.447,1.872,5.877,3.751,7.733,5.236
				c2.912,2.33,7.766,6.602,7.766,6.602c6.859-9.298,11.921-7.707,13.782-6.594c0.308,0.255,0.584,0.467,0.78,0.575
				C167.498,433.892,169.052,436.805,168.081,439.717z"/>
			<path style="fill:#FFFFFF;stroke:#263238;stroke-linecap:round;stroke-linejoin:round;stroke-miterlimit:10;" d="
				M150.994,422.048c0,0,6.407,4.466,6.407,6.213c0,1.747-3.689,2.136-5.242,1.553c-1.553-0.582-7.378-5.631-7.184-6.407
				C145.17,422.631,150.994,422.048,150.994,422.048z"/>
		</g>
		<path style="fill:#263238;stroke:#263238;stroke-linecap:round;stroke-linejoin:round;stroke-miterlimit:10;" d="M82.083,271.184
			c0,0-7.961,17.086-7.572,19.999C74.899,294.095,78.2,313.9,78.2,313.9s6.407,61.55,6.796,66.21
			c0.388,4.66,0.388,12.621,0.388,12.621s-1.942,5.048-2.136,9.902c-0.194,4.854,1.165,16.892,1.165,16.892l-0.194,2.912
			c0,0,6.407,1.553,10.097,3.107c3.689,1.553,7.766,2.33,9.708,0.583c1.942-1.747,3.301-2.913,3.689-5.048
			c0.388-2.136-0.777-8.931-0.777-10.291c0-1.359,1.165-11.067,1.359-14.756c0.194-3.689-0.777-16.116-0.777-17.669
			c0-1.553,10.873-76.889,11.067-77.665c0.194-0.777,11.261,72.811,11.456,74.17c0.194,1.359,0.194,14.951,1.165,21.164
			c0.971,6.213,2.524,23.105,2.524,23.105s-0.971,2.718-0.971,3.495c0,0.777,2.718,7.184,2.718,7.184s9.32-4.077,12.426-4.854
			c3.107-0.777,8.155-0.388,8.155-0.388s0-8.931-0.582-11.067c-0.583-2.136-1.553-5.048-1.553-7.184s2.33-13.203,2.33-20.581
			c0-7.378-1.165-16.31-0.971-20.97c0.194-4.66,5.048-49.123,5.048-53.783c0-4.66,1.165-35.338,1.165-35.338L82.083,271.184z"/>
		<g>
			<path style="fill:#92E3A9;stroke:#263238;stroke-linecap:round;stroke-linejoin:round;stroke-miterlimit:10;" d="
				M110.994,156.779c0,0-6.845,2.96-10.916,4.255c-4.07,1.295-14.061,4.07-21.461,8.695c-7.4,4.625-11.471,13.136-12.396,18.316
				c-0.925,5.18-1.11,12.581-1.11,12.581l-0.555,3.885c0,0,4.995,6.29,9.62,7.77c4.625,1.48,8.881,0.37,8.881,0.37
				s-2.035,39.777-2.405,45.512c-0.37,5.735-0.37,7.585-0.37,7.585s-0.74,0-0.74,2.035s-0.185,2.59,0.37,3.33
				c0.555,0.74,25.531,14.616,35.522,18.131c9.991,3.515,31.637-0.555,37.927-3.515c6.29-2.96,8.695-6.66,8.88-8.51
				s-0.37-9.621-0.74-11.101s-2.035-29.971-2.035-29.971l-0.925-5.735l10.546,8.14c0,0,3.33-8.325,4.07-17.946
				c0.74-9.62,0.37-14.801,0-16.836c-0.37-2.035,2.035-14.061-4.07-23.311c-6.105-9.25-19.796-13.876-23.866-16.096
				c-4.07-2.22-6.475-4.07-7.03-4.625c-0.555-0.555-2.775-3.885-2.775-3.885l-23.496-1.665L110.994,156.779z"/>
			<path style="fill:#C9C9C9;stroke:#263238;stroke-linecap:round;stroke-linejoin:round;stroke-miterlimit:10;" d="M141.811,162.36
				c-2.007-1.272-3.246-2.246-3.621-2.621c-0.555-0.555-2.775-3.885-2.775-3.885l-23.496-1.665l-0.925,2.59
				c0,0-3.889,1.682-7.548,3.065c1.869,5.271,8.142,20.623,18.094,21.542C129.683,182.137,137.566,170.169,141.811,162.36z"/>
			<path style="fill:#C9C9C9;stroke:#263238;stroke-linecap:round;stroke-linejoin:round;stroke-miterlimit:10;" d="
				M155.211,211.542l3.33,18.871l10.546,8.14c0,0,3.33-8.325,4.07-17.946c0.328-4.267,0.437-7.656,0.426-10.289
				C166.7,209.021,155.211,211.542,155.211,211.542z"/>
			
				<line style="fill:none;stroke:#263238;stroke-linecap:round;stroke-linejoin:round;stroke-miterlimit:10;" x1="83.058" y1="212.652" x2="79.542" y2="187.491"/>
			
				<line style="fill:none;stroke:#263238;stroke-linecap:round;stroke-linejoin:round;stroke-miterlimit:10;" x1="81.948" y1="207.842" x2="77.507" y2="192.486"/>
			<path style="fill:none;stroke:#263238;stroke-linecap:round;stroke-linejoin:round;stroke-miterlimit:10;" d="M113.314,253.922
				c-1.526,0.968-3.046,1.895-4.54,2.762"/>
			<path style="fill:none;stroke:#263238;stroke-linecap:round;stroke-linejoin:round;stroke-miterlimit:10;" d="M141.335,233.188
				c0,0-12.713,10.706-25.734,19.257"/>
			<path style="fill:none;stroke:#263238;stroke-linecap:round;stroke-linejoin:round;stroke-miterlimit:10;" d="M141.705,224.863
				c0,0-5.735,8.88-15.726,17.206"/>
			<path style="fill:none;stroke:#263238;stroke-linecap:round;stroke-linejoin:round;stroke-miterlimit:10;" d="M102.27,279.258
				c-9.297-4.633-20.137-11.473-20.137-11.473"/>
			<path style="fill:none;stroke:#263238;stroke-linecap:round;stroke-linejoin:round;stroke-miterlimit:10;" d="M110.439,282.771
				c-1.316-0.421-2.83-1.026-4.46-1.753"/>
			<path style="fill:none;stroke:#263238;stroke-linecap:round;stroke-linejoin:round;stroke-miterlimit:10;" d="M97.118,272.41
				c0,0,15.726,8.695,38.667,2.96"/>
			<path style="fill:none;stroke:#263238;stroke-linecap:round;stroke-linejoin:round;stroke-miterlimit:10;" d="M154.807,186.777
				c0,0-3.783,5.201-4.255,9.22"/>
		</g>
		<g>
			<path style="fill:#263238;stroke:#263238;stroke-linecap:round;stroke-linejoin:round;stroke-miterlimit:10;" d="
				M112.753,112.194c0,0-4.347,4.986-4.602,9.204c-0.256,4.219-0.383,18.281-0.383,24.162s1.023,11.378,3.068,13.04
				c2.045,1.662,5.625,3.196,7.926,3.707c2.301,0.511,7.287,0.895,8.949,0.383c1.662-0.511,8.949-3.452,10.994-5.625
				c2.045-2.173,2.557-11.633,2.557-19.687c0-8.054-0.384-17.258-1.662-19.943c-1.278-2.685-3.707-6.008-3.707-6.008
				s-2.173-3.835-10.483-4.347C117.099,106.57,112.881,108.359,112.753,112.194z"/>
			<path style="fill:#C9C9C9;stroke:#263238;stroke-linecap:round;stroke-linejoin:round;stroke-miterlimit:10;" d="
				M114.031,113.089c0,0,0.384,2.685-0.767,5.369c-1.151,2.685-3.963,4.602-3.963,7.031c0,2.429-0.895,14.701-0.639,16.108
				c0.256,1.406,1.918,5.241,2.94,5.625c1.023,0.383,5.753-2.429,10.483-2.429c4.73,0,11.633,2.685,12.4,3.324
				c0.767,0.639,3.068,1.023,3.579,0.256c0.511-0.767,1.278-6.52,1.406-7.926c0.128-1.406,0.639-6.903,0.511-9.971
				c-0.128-3.068-1.151-7.415-2.557-8.949c-1.406-1.534-3.068-7.926-3.068-7.926s-7.542,2.94-10.738,2.429
				C120.423,115.518,114.031,113.089,114.031,113.089z"/>
			<path style="fill:none;stroke:#263238;stroke-width:2;stroke-linecap:round;stroke-linejoin:round;stroke-miterlimit:10;" d="
				M112.497,128.273c0,0,3.579-1.364,9.204,0.682"/>
			<path style="fill:none;stroke:#263238;stroke-width:2;stroke-linecap:round;stroke-linejoin:round;stroke-miterlimit:10;" d="
				M127.966,127.859c0,0,3.109-3.273,8.182-0.982"/>
			<path style="fill:none;stroke:#263238;stroke-linecap:round;stroke-linejoin:round;stroke-miterlimit:10;" d="M120.679,140.319
				c0,0-1.278,1.406-0.895,2.557c0.383,1.151,1.15,1.79,2.301,1.918c1.151,0.128,4.091-0.256,4.858-0.767
				c0.767-0.511,0.767-3.068,0.767-3.068"/>
			<path style="fill:#C9C9C9;" d="M124.897,147.606c0,0-6.136-0.383-4.986,1.023c1.151,1.406,4.474,2.173,6.392,0.895
				C128.221,148.245,126.048,147.606,124.897,147.606z"/>
			<path style="fill:#263238;" d="M119.912,133.032c0,1.094-0.544,1.982-1.214,1.982c-0.671,0-1.215-0.887-1.215-1.982
				c0-1.094,0.544-1.982,1.215-1.982C119.368,131.051,119.912,131.938,119.912,133.032z"/>
			<ellipse style="fill:#263238;" cx="130.267" cy="133.544" rx="1.214" ry="1.982"/>
			<path style="fill:#C9C9C9;stroke:#263238;stroke-linecap:round;stroke-linejoin:round;stroke-miterlimit:10;" d="
				M107.511,129.197c0,0-2.045-0.767-2.685,2.301c-0.639,3.068,2.685,8.949,2.685,8.949V129.197z"/>
			<path style="fill:#C9C9C9;stroke:#263238;stroke-linecap:round;stroke-linejoin:round;stroke-miterlimit:10;" d="
				M141.389,129.836c0,0,2.685-1.918,3.707,1.918c1.023,3.835-3.835,9.46-3.835,9.46L141.389,129.836z"/>
			<path style="fill:none;stroke:#263238;stroke-linecap:round;stroke-linejoin:round;stroke-miterlimit:10;" d="M121.19,135.078
				c0,0-4.346,2.301-5.113,2.429"/>
			<path style="fill:none;stroke:#263238;stroke-linecap:round;stroke-linejoin:round;stroke-miterlimit:10;" d="M127.966,135.205
				c0,0,2.429,2.429,4.091,2.685"/>
		</g>
		<g>
			<path style="fill:#C9C9C9;stroke:#263238;stroke-linecap:round;stroke-linejoin:round;stroke-miterlimit:10;" d="M125.92,163.458
				c0,0-8.182-1.023-9.46-0.511c-1.278,0.511-3.196,3.835-2.813,4.858s1.534,1.79,1.534,1.79s1.023,2.685,1.406,4.346
				c0.383,1.662,1.023,3.068,1.662,3.452c0.639,0.383,1.023,1.79,2.301,2.045c1.278,0.256,2.94-0.511,2.94-0.511
				s2.429,2.429,3.963,3.579c1.534,1.15,5.241,2.301,5.241,2.301s13.679,41.548,16.491,46.15c2.812,4.602,14.19,13.04,16.491,12.528
				c2.301-0.511,4.986-7.031,5.497-9.588c0.511-2.557,0-9.204-1.79-12.273c-1.79-3.068-13.807-18.025-17.003-21.988
				c-3.196-3.963-12.656-16.236-12.912-16.875c-0.256-0.639-8.437-13.423-9.971-15.98
				C127.966,164.225,125.92,163.458,125.92,163.458z"/>
			<path style="fill:none;stroke:#263238;stroke-linecap:round;stroke-linejoin:round;stroke-miterlimit:10;" d="M115.182,169.594
				c0,0,1.151-1.662,1.79-1.918c0.639-0.256,6.392-1.278,6.392-1.278"/>
			<polyline style="fill:none;stroke:#263238;stroke-linecap:round;stroke-linejoin:round;stroke-miterlimit:10;" points="
				116.46,172.279 118.378,171 124.514,169.722 			"/>
			<path style="fill:none;stroke:#263238;stroke-linecap:round;stroke-linejoin:round;stroke-miterlimit:10;" d="M117.483,176.114
				c0,0,0.639-1.534,1.406-1.918c0.767-0.383,5.753-1.15,5.753-1.15"/>
			
				<line style="fill:none;stroke:#263238;stroke-linecap:round;stroke-linejoin:round;stroke-miterlimit:10;" x1="123.491" y1="178.926" x2="120.551" y2="177.648"/>
		</g>
	</g>
</g>
</svg>
